<?xml version="1.0" standalone="no"?><!DOCTYPE svg PUBLIC "-//W3C//DTD SVG 1.1//EN" "http://www.w3.org/Graphics/SVG/1.1/DTD/svg11.dtd"><svg t="1489656705246" class="icon" style="" viewBox="0 0 1024 1024" version="1.1" xmlns="http://www.w3.org/2000/svg" p-id="4779" xmlns:xlink="http://www.w3.org/1999/xlink" width="22" height="22"><defs><style type="text/css"></style></defs><path d="M522.666667 970.666667 70.4 552.533333C25.6 499.2 0 428.8 0 356.266667 0 187.733333 136.533333 53.333333 305.066667 53.333333c78.933333 0 151.466667 29.866667 209.066667 81.066667 55.466667-51.2 130.133333-81.066667 209.066667-81.066667C887.466667 53.333333 1024 187.733333 1024 356.266667c0 72.533333-25.6 142.933333-70.4 196.266667l-2.133333 2.133333L597.333333 876.8l-42.666667-46.933333 349.866667-317.866667c34.133333-42.666667 55.466667-98.133333 55.466667-153.6 0-132.266667-106.666667-241.066667-241.066667-241.066667-70.4 0-138.666667 29.866667-183.466667 85.333333L512 230.4l-23.466667-29.866667c-44.8-53.333333-113.066667-85.333333-183.466667-85.333333C170.666667 117.333333 64 224 64 356.266667c0 55.466667 19.2 110.933333 55.466667 153.6l445.866667 413.866667L522.666667 970.666667z" p-id="4780" fill="#FF5D3D"></path><path d="M486.4 763.733333l-322.133333-298.666667C140.8 433.066667 128 394.666667 128 356.266667c0-96 78.933333-177.066667 177.066667-177.066667l0 64c-61.866667 0-113.066667 51.2-113.066667 113.066667 0 23.466667 8.533333 49.066667 21.333333 68.266667l315.733333 294.4L486.4 763.733333zM622.933333 309.333333 565.333333 277.333333c23.466667-40.533333 59.733333-70.4 104.533333-83.2 44.8-12.8 91.733333-8.533333 134.4 14.933333l-29.866667 55.466667c-25.6-14.933333-55.466667-17.066667-85.333333-8.533333C661.333333 262.4 635.733333 281.6 622.933333 309.333333z" p-id="4781" fill="#FF5D3D"></path></svg>