<?xml version="1.0" standalone="no"?><!DOCTYPE svg PUBLIC "-//W3C//DTD SVG 1.1//EN" "http://www.w3.org/Graphics/SVG/1.1/DTD/svg11.dtd"><svg t="1489656739430" class="icon" style="" viewBox="0 0 1024 1024" version="1.1" xmlns="http://www.w3.org/2000/svg" p-id="6389" xmlns:xlink="http://www.w3.org/1999/xlink" width="22" height="22"><defs><style type="text/css"></style></defs><path d="M1017.792 126.88c-6.336-8.96-16.672-14.304-27.648-14.304-3.008 0-5.984 0.384-8.864 1.184l-956.352 262.72c-11.712 3.2-20.864 12.544-23.872 24.32-3.008 11.808 0.576 24.384 9.312 32.832l132.032 124.928c6.24 6.016 14.592 9.408 23.392 9.408 9.28 0 17.952-3.68 24.384-10.368 6.272-6.528 9.632-15.104 9.472-24.16-0.16-9.056-3.84-17.504-10.368-23.808l-88.736-83.552L909.472 203.84 494.56 805.6l-99.712-106.624-0.224-0.256-0.256-0.256c-6.336-6.112-14.688-9.472-23.488-9.472-9.28 0-17.952 3.68-24.384 10.368-6.272 6.528-9.632 15.104-9.472 24.16s3.84 17.504 10.368 23.808l128 135.072c6.784 6.56 15.104 9.92 23.904 9.92 1.12 0 2.24-0.064 3.328-0.16 9.952-0.992 18.88-6.272 24.512-14.496L1018.016 165.76C1026.08 154.08 1025.984 138.464 1017.792 126.88zM334.336 757.024c-8.896 0-17.312 3.424-23.648 9.664l-27.712 27.104 5.888-151.584 458.24-297.504c7.584-4.928 12.8-12.512 14.688-21.376 1.888-8.864 0.224-17.92-4.704-25.536-6.272-9.696-16.896-15.488-28.416-15.488-6.528 0-12.896 1.888-18.4 5.472l-472.96 307.04c-9.216 6.016-15.008 16.16-15.424 27.136l-9.888 254.208c-0.544 13.952 7.328 26.624 20.064 32.32 4.384 1.952 8.992 2.912 13.76 2.912 8.896 0 17.28-3.424 23.648-9.664l88.512-86.56c6.464-6.336 10.112-14.784 10.208-23.872 0.128-9.056-3.296-17.632-9.632-24.128C352.128 760.64 343.52 757.024 334.336 757.024z" p-id="6390" fill="#FF5D3D"></path></svg>