<?xml version="1.0" standalone="no"?><!DOCTYPE svg PUBLIC "-//W3C//DTD SVG 1.1//EN" "http://www.w3.org/Graphics/SVG/1.1/DTD/svg11.dtd"><svg t="1489656819281" class="icon" style="" viewBox="0 0 1024 1024" version="1.1" xmlns="http://www.w3.org/2000/svg" p-id="7105" xmlns:xlink="http://www.w3.org/1999/xlink" width="22" height="22"><defs><style type="text/css"></style></defs><path d="M679.23 887.477C663.427 965.331 594.558 1024 511.999 1024c-82.557 0-151.427-58.669-167.23-136.523L34.144 887.477l136.522-273.098L170.666 341.333C170.667 152.801 323.469 0 511.999 0c188.532 0 341.333 152.801 341.333 341.333l0 273.046 136.523 273.098L679.23 887.477 679.23 887.477zM511.999 955.711c44.504 0 82.03-28.594 96.143-68.235L415.857 887.476C429.97 927.117 467.495 955.711 511.999 955.711L511.999 955.711zM785.045 614.379 785.045 341.333c0-150.794-122.252-273.046-273.046-273.046-150.793 0-273.045 122.252-273.045 273.046l0 273.046-102.431 204.81 750.953 0L785.045 614.379 785.045 614.379z" p-id="7106" fill="#FF5D3D"></path></svg>