<?xml version="1.0" standalone="no"?><!DOCTYPE svg PUBLIC "-//W3C//DTD SVG 1.1//EN" "http://www.w3.org/Graphics/SVG/1.1/DTD/svg11.dtd"><svg t="1490864053843" class="icon" style="" viewBox="0 0 1024 1024" version="1.1" xmlns="http://www.w3.org/2000/svg" p-id="2374" xmlns:xlink="http://www.w3.org/1999/xlink" width="20" height="20"><defs><style type="text/css"></style></defs><path d="M513.107 95.293c-228.41 0-413.574 185.163-413.574 413.574S284.697 922.44 513.107 922.44s413.574-185.163 413.574-413.574S741.517 95.293 513.107 95.293zM513.785 845.154c-185.726 0-336.287-150.561-336.287-336.287S328.059 172.58 513.785 172.58 850.072 323.14 850.072 508.867 699.511 845.154 513.785 845.154z" p-id="2375" fill="#ffffff"></path><path d="M568.173 506.753l88.681-88.681c13.726-13.726 10.945-29.363 10.945-29.363 0-16.853-10.598-25.367-10.598-25.367-11.641-11.641-25.887-11.814-25.887-11.814-18.591 0-29.538 11.814-29.538 11.814l-88.669 88.47-88.67-88.47c0 0-10.945-11.814-29.537-11.814 0 0-14.246 0.173-25.887 11.814 0 0-10.6 8.513-10.6 25.367 0 0-2.779 15.637 10.947 29.363l88.681 88.681-87.696 87.5c-12.163 9.903-12.163 29.537-12.163 29.537 0 15.289 11.988 27.625 11.988 27.625 10.687 10.685 25.715 9.729 25.715 9.729 19.634 0 28.669-10.772 28.669-10.772l88.552-88.552 88.552 88.552c0 0 9.035 10.772 28.669 10.772 0 0 15.029 0.956 25.714-9.729 0 0 11.989-12.336 11.989-27.625 0 0 0-19.634-12.163-29.537L568.173 506.753z" p-id="2376" fill="#ffffff"></path></svg>