<?xml version="1.0" standalone="no"?><!DOCTYPE svg PUBLIC "-//W3C//DTD SVG 1.1//EN" "http://www.w3.org/Graphics/SVG/1.1/DTD/svg11.dtd"><svg t="1490169928302" class="icon" style="" viewBox="0 0 1024 1024" version="1.1" xmlns="http://www.w3.org/2000/svg" p-id="13538" xmlns:xlink="http://www.w3.org/1999/xlink" width="20" height="20"><defs><style type="text/css"></style></defs><path d="M512 1024C230.4 1024 0 793.6 0 512 0 230.4 230.4 0 512 0 793.6 0 1024 230.4 1024 512 1024 793.6 793.6 1024 512 1024L512 1024ZM512 85.333333C277.333332 85.333333 85.333333 277.333332 85.333333 512 85.333333 746.666668 277.333332 938.666668 512 938.666668 746.666668 938.666668 938.666668 746.666668 938.666668 512 938.666668 277.333332 746.666668 85.333333 512 85.333333L512 85.333333Z" p-id="13539" fill="#ffffff"></path><path d="M443.733332 529.066668 345.6 627.2C328.533332 644.266668 328.533332 669.866668 345.6 686.933332 354.133332 695.466668 362.666668 699.733332 375.466668 699.733332 388.266668 699.733332 396.8 695.466668 405.333332 686.933332L503.466668 588.8 601.6 686.933332C610.133332 695.466668 618.666668 699.733332 631.466668 699.733332 644.266668 699.733332 652.8 695.466668 661.333332 686.933332 678.4 669.866668 678.4 644.266668 661.333332 627.2L563.2 529.066668 661.333332 430.933332C678.4 413.866668 678.4 388.266668 661.333332 371.2 644.266668 354.133332 618.666668 354.133332 601.6 371.2L503.466668 469.333332 405.333332 371.2C388.266668 354.133332 362.666668 354.133332 345.6 371.2 328.533332 388.266668 328.533332 413.866668 345.6 430.933332L443.733332 529.066668Z" p-id="13540" fill="#ffffff"></path></svg>