<?xml version="1.0" standalone="no"?><!DOCTYPE svg PUBLIC "-//W3C//DTD SVG 1.1//EN" "http://www.w3.org/Graphics/SVG/1.1/DTD/svg11.dtd"><svg t="1490169998170" class="icon" style="" viewBox="0 0 1031 1024" version="1.1" xmlns="http://www.w3.org/2000/svg" p-id="13711" xmlns:xlink="http://www.w3.org/1999/xlink" width="20.13671875" height="20"><defs><style type="text/css"></style></defs><path d="M867.731462 162.082156C772.337504 68.331444 645.608595 16.670264 510.727761 16.670264c-134.820616 0-261.599537 51.662201-356.884285 145.411893C58.482179 255.912479 5.97488 380.657246 5.97488 513.333478c-0.01633 132.707872 52.43177 257.419978 147.760407 351.245198 95.328636 93.765002 222.092247 145.410872 356.895512 145.410872 134.897165 0 261.706705-51.69282 357.100663-145.469049C1064.509567 670.903344 1064.526918 355.794232 867.731462 162.082156L867.731462 162.082156 867.731462 162.082156 867.731462 162.082156zM821.543002 818.673957C738.56116 900.287109 628.195299 945.313049 510.850239 945.313049c-117.311379 0-227.610897-44.982052-310.536604-126.54213C117.389969 737.163891 71.70469 628.611724 71.73735 513.145679c0-115.482375 45.685279-224.049852 128.640585-305.630344 82.966533-81.608049 193.225226-126.52682 310.552935-126.52682 117.327709 0 227.629269 44.918772 310.612132 126.52682C992.743639 376.023499 992.743639 650.199475 821.543002 818.673957L821.543002 818.673957 821.543002 818.673957 821.543002 818.673957zM681.296615 352.021912c-32.62199 0-59.110899 25.975522-59.110899 57.998391 0 31.996332 26.488909 58.003495 59.110899 58.003495 32.695477 0 59.141518-26.007162 59.141518-58.003495C740.438134 377.992331 713.992092 352.021912 681.296615 352.021912L681.296615 352.021912 681.296615 352.021912 681.296615 352.021912zM366.629444 468.022777c32.695477 0 59.142539-26.007162 59.142539-58.003495 0-32.026952-26.447062-57.998391-59.142539-57.998391-32.576061 0-59.160911 25.975522-59.160911 57.998391C307.468533 442.015615 334.039094 468.022777 366.629444 468.022777L366.629444 468.022777 366.629444 468.022777 366.629444 468.022777zM511.242168 597.145109c-82.564397 0-155.382615 42.586588-198.60813 107.803011-13.314369 20.073108 1.282956 47.042743 25.268212 47.042743l2.334225 0c9.622681 0 18.948353-4.473505 24.390454-12.547861 32.296403-47.654112 85.911106-78.820656 146.616259-78.820656 61.020534 0 114.934287 30.712355 147.151079 78.729818 5.409441 8.074356 14.785124 12.623389 24.471085 12.623389l1.450343 0c23.974029 0.047971 38.572375-26.985965 25.237593-47.027433C666.24306 639.860299 593.588146 597.145109 511.242168 597.145109L511.242168 597.145109 511.242168 597.145109 511.242168 597.145109zM511.242168 597.145109" p-id="13712" fill="#ffffff"></path></svg>