<?xml version="1.0" standalone="no"?><!DOCTYPE svg PUBLIC "-//W3C//DTD SVG 1.1//EN" "http://www.w3.org/Graphics/SVG/1.1/DTD/svg11.dtd"><svg t="1490153375353" class="icon" style="" viewBox="0 0 1024 1024" version="1.1" xmlns="http://www.w3.org/2000/svg" p-id="2966" xmlns:xlink="http://www.w3.org/1999/xlink" width="20" height="20"><defs><style type="text/css"></style></defs><path d="M819.2 1024H204.8a136.533333 136.533333 0 0 1-136.533333-136.533333V204.8l409.6 136.533333h68.266666l409.6-136.533333v682.666667a136.533333 136.533333 0 0 1-136.533333 136.533333zM547.771733 680.413867l99.1232-0.2048c24.7808 0.2048 33.655467-12.629333 34.133334-28.194134 0.341333-13.448533-12.356267-38.775467-34.816-39.389866h-98.986667v-23.893334S622.3872 512 641.911467 494.318933c19.456-17.749333 24.3712-31.675733 12.288-46.08-12.151467-14.677333-33.5872-13.7216-49.3568-0.682666-15.9744 13.175467-92.706133 84.514133-92.706134 84.514133s-65.9456-68.061867-80.213333-81.783467c-12.765867-12.288-40.004267-24.234667-54.613333-7.714133-15.291733 17.339733-3.413333 38.912 6.144 48.469333 9.557333 9.352533 92.023467 96.529067 92.023466 96.529067l-0.136533 26.282667H371.985067c-15.291733 0-28.808533 27.170133-28.330667 41.642666 0.546133 14.336 12.0832 25.6 28.2624 25.6s103.082667-0.6144 103.082667-0.6144l-0.2048 73.181867H367.684267c-15.223467 0-28.0576 15.428267-28.672 29.832533-0.682667 14.472533 11.400533 34.065067 28.672 34.065067h106.837333s-0.2048 24.9856 0.477867 35.498667c1.365333 23.210667 16.725333 32.768 37.137066 33.1776 20.411733 0.341333 34.884267-16.725333 34.816-32.017067 0-12.629333-0.341333-36.6592-0.341333-36.6592s88.8832-0.2048 105.6768 0c16.7936 0.136533 29.354667-16.861867 28.672-34.065067-0.546133-17.2032-10.990933-30.446933-36.522667-30.446933H547.2256l0.546133-72.567467zM546.133333 273.066667H477.866667L68.266667 136.533333a136.533333 136.533333 0 0 1 136.533333-136.533333h614.4a136.533333 136.533333 0 0 1 136.533333 136.533333L546.133333 273.066667z" fill="#F23C3C" p-id="2967"></path></svg>