<?xml version="1.0" standalone="no"?><!DOCTYPE svg PUBLIC "-//W3C//DTD SVG 1.1//EN" "http://www.w3.org/Graphics/SVG/1.1/DTD/svg11.dtd"><svg t="1490163782280" class="icon" style="" viewBox="0 0 1024 1024" version="1.1" xmlns="http://www.w3.org/2000/svg" p-id="11136" xmlns:xlink="http://www.w3.org/1999/xlink" width="20" height="20"><defs><style type="text/css"></style></defs><path d="M528.672 640.96c-24.256 0-43.936 20-43.936 44.736 0 24.704 19.68 44.736 43.936 44.736 24.288 0 43.904-20.064 43.904-44.736C572.576 660.96 552.896 640.96 528.672 640.96zM528.64 262.144c-24.256 0-43.936 20.064-43.936 44.736l0 229.728c0 24.704 19.68 44.736 43.936 44.736 24.288 0 43.936-20.064 43.936-44.736L572.576 306.912C572.576 282.176 552.864 262.144 528.64 262.144zM864.48 337.6C864 301.216 863.424 261.504 863.36 217.952c-0.032-13.184-8.576-24.8-20.992-28.576-100.512-30.304-190.208-48.064-309.568-61.28-1.536-0.16-3.072-0.192-4.64-0.16-60.608 3.168-117.312 10.72-168.544 22.528-51.328 11.84-100.32 24.96-145.504 38.944C201.792 193.216 193.344 204.8 193.344 217.952c0 39.264-0.416 75.36-0.768 108.832C189.44 614.016 188.256 721.536 468.8 877.28c23.296 12.864 42.08 18.656 60.928 18.656 18.688 0 37.376-5.6 60.544-18.176C869.76 725.664 868.544 635.68 864.48 337.6zM562.688 825.12c-14.176 7.712-24.384 11.2-32.928 11.2-8.672 0-18.528-3.424-32.928-11.424-249.6-138.56-248.768-214.592-245.696-497.408 0.288-27.264 0.64-56.256 0.704-87.232 38.016-11.264 78.528-21.856 120.736-31.552 47.296-10.912 99.872-17.984 156.224-20.992 106.112 11.84 188 27.392 276.064 52.736 0.192 35.168 0.64 67.712 1.056 97.984C809.952 629.6 810.752 690.144 562.688 825.12z" p-id="11137" fill="#999999"></path></svg>