<?xml version="1.0" standalone="no"?><!DOCTYPE svg PUBLIC "-//W3C//DTD SVG 1.1//EN" "http://www.w3.org/Graphics/SVG/1.1/DTD/svg11.dtd"><svg t="1490163671564" class="icon" style="" viewBox="0 0 1024 1024" version="1.1" xmlns="http://www.w3.org/2000/svg" p-id="9691" xmlns:xlink="http://www.w3.org/1999/xlink" width="20" height="20"><defs><style type="text/css"></style></defs><path d="M752.535797 273.701662l-2.230808-2.227738c-51.299363-51.300386-135.227868-51.300386-186.526207 0l-118.846782 118.883621c-51.299363 51.281967-51.299363 135.222751 0 186.544627l2.192945 2.156106c4.27742 4.267187 8.833179 8.116865 13.485129 11.728112l43.49563-43.544749c-5.086855-2.956332-9.885138-6.591115-14.223956-10.92891l-2.192945-2.156106c-27.855418-27.866674-27.855418-73.180719 0-101.048417L606.609263 314.26859c27.782763-27.855418 73.084529-27.855418 100.951203 0l2.218528 2.180666c27.855418 27.867698 27.855418 73.194022 0 101.012601l-53.736878 53.765531c9.304923 23.067368 13.740956 47.64002 13.304004 72.114434l83.152838-83.117023C803.83516 408.918273 803.83516 325.004095 752.535797 273.701662L752.535797 273.701662 752.535797 273.701662 752.535797 273.701662zM576.877101 444.959118c-4.266164-4.264117-8.820899-8.118911-13.521968-11.680017l-43.472094 43.496653c5.088902 3.00545 9.888208 6.615675 14.249539 10.952446l2.215458 2.227738c27.855418 27.820626 27.855418 73.135694 0 101.002368L417.465438 709.790762c-27.854395 27.821649-73.15616 27.821649-101.010555 0l-2.229784-2.204202c-27.854395-27.864628-27.854395-73.204256 0-100.999298l53.771671-53.745065c-9.317203-23.070438-13.763468-47.665603-13.340843-72.140017l-83.176374 83.068927c-51.312666 51.349505-51.312666 135.288243 0 186.563046l2.216481 2.228761c51.299363 51.251268 135.227868 51.251268 186.526207 0l118.835526-118.883621c51.250244-51.299363 51.250244-135.263683 0-186.513928L576.877101 444.959118 576.877101 444.959118 576.877101 444.959118 576.877101 444.959118zM576.877101 444.959118" p-id="9692" fill="#999999"></path></svg>