<?xml version="1.0" standalone="no"?><!DOCTYPE svg PUBLIC "-//W3C//DTD SVG 1.1//EN" "http://www.w3.org/Graphics/SVG/1.1/DTD/svg11.dtd"><svg t="1490782255931" class="icon" style="" viewBox="0 0 1024 1024" version="1.1" xmlns="http://www.w3.org/2000/svg" p-id="24614" xmlns:xlink="http://www.w3.org/1999/xlink" width="20" height="20"><defs><style type="text/css"></style></defs><path d="M511.808 692.224c-18.048 0-35.136 3.968-50.432 11.392-25.472 12.416-46.528 33.92-57.792 60.032-5.632 14.144-9.024 29.504-9.024 45.952 0 65.152 52.672 117.824 117.248 117.824 65.28 0 117.952-52.672 117.952-117.824C629.76 744.96 577.088 692.224 511.808 692.224zM511.808 870.72c-33.408 0-60.608-27.712-60.608-61.12 0-33.472 27.2-60.672 60.608-60.672s61.248 27.2 61.248 60.672C573.056 843.072 545.28 870.72 511.808 870.72z" p-id="24615"></path><path d="M286.784 661.632c3.968 3.392 8.512 5.632 12.992 5.632l138.304-143.936c-60.032 14.72-114.432 49.344-155.328 98.624C273.216 633.792 274.88 652.032 286.784 661.632z" p-id="24616"></path><path d="M622.912 534.656 579.904 579.968c45.312 13.056 86.72 40.256 117.376 78.208 5.632 6.784 13.568 10.24 22.08 10.24 6.272 0 12.416-2.24 18.176-6.784 11.904-9.6 13.568-27.84 3.392-39.68C709.12 582.848 668.224 552.832 622.912 534.656z" p-id="24617"></path><path d="M511.808 391.168c17.024 0 33.408 1.216 49.856 3.456l47.68-49.856C577.6 337.92 545.28 334.528 511.808 334.528c-142.784 0-277.12 63.488-367.232 174.656-10.24 11.904-8.576 30.08 3.904 39.68C153.6 553.344 159.808 555.648 166.656 555.648c7.936 0 15.872-3.968 21.568-10.816C268.096 447.296 385.984 391.168 511.808 391.168z" p-id="24618"></path><path d="M751.616 400.32 711.36 442.24c47.04 24.96 89.536 60.032 124.096 102.592 10.24 12.48 27.84 14.208 40.256 3.968 11.968-9.6 13.632-27.84 3.968-39.68C843.52 464.32 799.808 428.032 751.616 400.32z" p-id="24619"></path><path d="M705.152 244.928l42.56-44.672c-73.664-28.992-153.6-44.224-235.904-44.224-196.672 0-380.864 87.872-505.6 239.744-9.6 12.48-7.872 30.08 3.968 40.256C15.808 440 22.08 442.24 28.288 442.24c7.936 0 16.448-3.392 22.144-10.176C163.84 292.608 332.096 212.672 511.808 212.672 578.752 212.672 643.968 223.424 705.152 244.928z" p-id="24620"></path><path d="M1017.472 395.776C977.28 345.856 930.176 303.36 878.016 268.8l-39.68 41.344c51.072 32.896 97.024 73.664 135.552 121.856 9.6 11.904 27.776 13.568 39.68 3.968C1025.408 425.792 1027.712 408.256 1017.472 395.776z" p-id="24621"></path><path d="M937.408 104.512c-11.328-10.944-29.312-10.496-40.064 0.832L179.008 854.72c-10.816 11.328-10.496 29.248 0.896 40.064 5.44 5.312 12.48 7.872 19.584 7.872 7.488 0 14.848-2.88 20.416-8.704L938.24 144.576C949.12 133.248 948.736 115.328 937.408 104.512z" p-id="24622"></path></svg>