<?xml version="1.0" standalone="no"?><!DOCTYPE svg PUBLIC "-//W3C//DTD SVG 1.1//EN" "http://www.w3.org/Graphics/SVG/1.1/DTD/svg11.dtd"><svg t="1490926730474" class="icon" style="" viewBox="0 0 1024 1024" version="1.1" xmlns="http://www.w3.org/2000/svg" p-id="11588" xmlns:xlink="http://www.w3.org/1999/xlink" width="20" height="20"><defs><style type="text/css"></style></defs><path d="M512.002539 1023.999734c-149.586866 0-427.789372-227.685466-427.789372-442.974483L84.213167 152.129828l42.537571-0.692381c0.898435 0 95.861243-2.00683 193.83244-41.571363 100.487206-40.608475 165.307133-87.242127 165.916506-87.692321l25.398363-18.401313 25.596605 18.401313c0.615233 0.450194 65.425785 47.083846 165.91885 87.692321 97.980377 39.564533 192.937521 41.571363 193.941229 41.571363l42.332103 0.692381 0.199218 428.895423C939.891129 796.314073 661.686085 1023.999734 512.002539 1023.999734L512.002539 1023.999734zM170.603735 234.357321l0 346.66793c0 166.456934 242.304564 357.038016 341.398804 357.038016 99.082913 0 341.39939-190.586746 341.39939-357.038016L853.401929 234.357321c-42.332103-4.56444-111.077214-16.037062-182.450247-44.864712-73.174786-29.58546-128.712904-61.773061-158.949144-80.926325-30.147373 19.153264-85.788616 51.34067-158.865746 80.926325C281.677433 218.320259 212.932321 229.792881 170.603735 234.357321L170.603735 234.357321zM489.120184 742.17263l-181.643023-153.928651 55.840266-65.390629 116.530713 98.691312L701.007454 368.075094l65.300785 56.356476L489.120184 742.17263z" p-id="11589" fill="#1abc9c"></path></svg>