<?xml version="1.0" standalone="no"?><!DOCTYPE svg PUBLIC "-//W3C//DTD SVG 1.1//EN" "http://www.w3.org/Graphics/SVG/1.1/DTD/svg11.dtd"><svg t="1490923509263" class="icon" style="" viewBox="0 0 1024 1024" version="1.1" xmlns="http://www.w3.org/2000/svg" p-id="6717" xmlns:xlink="http://www.w3.org/1999/xlink" width="20" height="20"><defs><style type="text/css"></style></defs><path d="M604.032 512 908.8 206.912c25.408-25.408 25.408-66.624 0-92.096-25.408-25.408-66.56-25.408-92.032 0L512 419.904 207.168 114.816c-25.408-25.408-66.624-25.408-92.032 0-25.344 25.472-25.344 66.688 0 92.096L420.032 512l-304.896 305.152c-25.344 25.344-25.344 66.624 0 92.032 12.736 12.736 29.376 19.136 46.08 19.136 16.64 0 33.28-6.4 46.016-19.136L512 604.032l304.832 305.088c12.672 12.736 29.376 19.136 46.016 19.136s33.344-6.4 46.016-19.136c25.408-25.344 25.408-66.624 0-92.032L604.032 512z" p-id="6718" fill="#ffffff"></path></svg>