<?xml version="1.0" standalone="no"?><!DOCTYPE svg PUBLIC "-//W3C//DTD SVG 1.1//EN" "http://www.w3.org/Graphics/SVG/1.1/DTD/svg11.dtd"><svg t="1490261037766" class="icon" style="" viewBox="0 0 1024 1024" version="1.1" xmlns="http://www.w3.org/2000/svg" p-id="3882" xmlns:xlink="http://www.w3.org/1999/xlink" width="20" height="20"><defs><style type="text/css"></style></defs><path d="M512.177544 65.452711c-246.738567 0-446.696692 199.995987-446.696692 446.735577 0 246.739591 199.958124 446.723298 446.696692 446.723298 246.714008 0 446.696692-199.983707 446.696692-446.723298C958.874235 265.449721 758.890528 65.452711 512.177544 65.452711L512.177544 65.452711zM758.121002 651.429563c-11.522428 10.752902-31.333636-0.974188-50.375318-27.329439-8.263198 22.325471-19.040658 42.880623-31.538297 61.35744 26.920116 9.623171 44.216038 24.610514 44.216038 41.547255 0 29.228695-51.708686 52.889581-115.555829 52.889581-37.903262 0-71.365374-8.28878-92.510974-21.170159-20.939915 12.882402-54.608735 21.170159-92.485391 21.170159-63.847144 0-115.581412-23.659863-115.581412-52.889581 0-16.73208 17.321504-31.92306 44.24162-41.547255-12.67774-18.450211-23.249517-39.031968-31.538297-61.35744-19.040658 26.149567-38.826284 38.08234-50.374294 27.329439-15.782451-14.807241-9.803273-67.131957 13.651928-116.735701 5.38873-11.342326 11.136641-21.530362 17.09126-30.384008 3.28379-144.232962 98.284467-260.005732 214.815507-260.005732l0.384763 0c116.53104 0 211.531717 115.581412 214.789924 260.005732 5.953595 8.853645 11.752672 19.040658 17.116843 30.384008C767.744173 584.297606 773.90243 636.622322 758.121002 651.429563L758.121002 651.429563zM758.121002 651.429563" p-id="3883" fill="#ffffff"></path></svg>