<?xml version="1.0" standalone="no"?><!DOCTYPE svg PUBLIC "-//W3C//DTD SVG 1.1//EN" "http://www.w3.org/Graphics/SVG/1.1/DTD/svg11.dtd"><svg t="1490854986367" class="icon" style="" viewBox="0 0 1024 1024" version="1.1" xmlns="http://www.w3.org/2000/svg" p-id="7687" xmlns:xlink="http://www.w3.org/1999/xlink" width="20" height="20"><defs><style type="text/css"></style></defs><path d="M513.509377 64.018036c-246.852154 0-446.965821 200.112644-446.965821 446.965821 0 246.852154 200.113667 446.965821 446.965821 446.965821 246.853178 0 446.965821-200.113667 446.965821-446.965821C960.474175 264.130679 760.362554 64.018036 513.509377 64.018036zM605.206822 202.3895c15.429411 0 27.935236 12.506848 27.935236 27.935236 0 15.428388-12.506848 27.935236-27.935236 27.935236-15.428388 0-27.935236-12.506848-27.935236-27.935236C577.271586 214.895325 589.779458 202.3895 605.206822 202.3895zM288.256146 377.282762c-34.504862 47.865147-52.653197 102.573143-55.736419 157.523663-0.621147 11.086499-9.870812 19.684318-20.973684 19.684318l-0.711198 0c-12.226462 0-21.851681-10.351766-21.143553-22.557762 3.63683-62.622246 24.49488-124.980479 63.897286-179.641403 59.403948-82.405825 148.706857-130.267902 242.383376-139.880841 12.490475-1.281179 23.391756 8.520047 23.391756 21.076014l0 0.426719c0 10.657734-7.927553 19.821441-18.531052 20.897959C418.648892 263.152399 340.250334 305.158095 288.256146 377.282762zM759.248174 780.284279l-0.391926 0.390903c-10.722202 10.723226-28.107151 10.723226-38.829354 0l-86.212524-86.211501c-32.408107 24.26566-72.513524 38.814004-116.115578 38.814004-107.226117 0-194.150862-86.924745-194.150862-194.151885s86.924745-194.150862 194.150862-194.150862c107.22714 0 194.151885 86.923722 194.151885 194.150862 0 43.601031-14.547321 83.70747-38.814004 116.115578l86.212524 86.212524C769.971399 752.177128 769.971399 769.561054 759.248174 780.284279z" p-id="7688" fill="#333333"></path><path d="M517.698792 400.443251c-76.469626 0-138.682549 62.212924-138.682549 138.683573S441.228143 677.810397 517.698792 677.810397c76.470649 0 138.683573-62.213947 138.683573-138.684596S594.169441 400.443251 517.698792 400.443251z" p-id="7689" fill="#333333"></path></svg>